<svg preserveAspectRatio="none" width="100%" height="100%" overflow="visible" style="display: block;" viewBox="0 0 24 24" fill="none" xmlns="http://www.w3.org/2000/svg">
<g id="Icon">
<g id="Icon_2">
<path id=" " d="M9.0957 7.46094C9.32863 10.3726 11.6253 12.6936 14.5342 12.958L15.0215 13.002V13.998L14.5342 14.043C11.6253 14.3074 9.32863 16.6284 9.0957 19.54L8.99805 20.7705H8.00098L7.90234 19.54C7.66942 16.6285 5.37365 14.3075 2.46484 14.043L1.97656 13.998V13.002L2.46484 12.958C5.37366 12.6935 7.66942 10.3725 7.90234 7.46094L8.00098 6.23047H8.99805L9.0957 7.46094ZM19.2744 13.5928C19.3817 14.9944 20.4376 16.1119 21.7754 16.2393L22 16.2607V16.7393L21.7754 16.7607C20.4376 16.8881 19.3817 18.0056 19.2744 19.4072L19.2295 20H18.7705L18.7256 19.4072C18.6183 18.0056 17.5624 16.8881 16.2246 16.7607L16 16.7393V16.2607L16.2246 16.2393C17.5624 16.1119 18.6183 14.9944 18.7256 13.5928L18.7705 13H19.2295L19.2744 13.5928ZM16.3662 2.76172C16.5091 4.56398 17.9173 6.00037 19.7012 6.16406L20 6.19141V6.80859L19.7012 6.83594C17.9173 6.99963 16.5091 8.43602 16.3662 10.2383L16.3057 11H15.6943L15.6338 10.2383C15.4909 8.43602 14.0827 6.99963 12.2988 6.83594L12 6.80859V6.19141L12.2988 6.16406C14.0827 6.00037 15.4909 4.56398 15.6338 2.76172L15.6943 2H16.3057L16.3662 2.76172Z" fill="var(--fill-0, #1D2329)"/>
</g>
</g>
</svg>
