<svg preserveAspectRatio="none" width="100%" height="100%" overflow="visible" style="display: block;" viewBox="0 0 24 24" fill="none" xmlns="http://www.w3.org/2000/svg">
<g id="Icon">
<g id="Icon_2">
<path id=" " d="M12.0001 2C17.5229 2 22.0001 6.47715 22.0001 12C22.0001 17.5228 17.5229 22 12.0001 22C6.47724 22 2.00009 17.5228 2.00009 12C2.00009 6.47715 6.47724 2 12.0001 2ZM12.0001 16C9.76247 16 7.71611 16.5453 6.14169 17.4463C7.6024 19.0168 9.68611 20 12.0001 20C14.3138 20 16.3968 19.0165 17.8575 17.4463C16.2832 16.5456 14.2374 16 12.0001 16ZM12.0001 5C9.51481 5 7.50009 7.01472 7.50009 9.5C7.50009 11.9853 9.51481 14 12.0001 14C14.4854 14 16.5001 11.9853 16.5001 9.5C16.5001 7.01472 14.4854 5 12.0001 5Z" fill="var(--fill-0, #7F8B99)"/>
</g>
</g>
</svg>
