<svg preserveAspectRatio="none" width="100%" height="100%" overflow="visible" style="display: block;" viewBox="0 0 24 24" fill="none" xmlns="http://www.w3.org/2000/svg">
<g id="Icon">
<g id="Icon_2">
<path id=" " d="M13.7754 0.887695C15.7597 0.000666269 17.9997 1.45249 18 3.62598V4.99902H19C20.6568 4.99902 21.9998 6.34231 22 7.99902V17.999C22 19.6559 20.6569 20.999 19 20.999H5C3.34315 20.999 2 19.6559 2 17.999V9.39355C2 7.42149 3.15959 5.63291 4.95996 4.82812L13.7754 0.887695ZM18 6.99902V12.1055C18 14.0775 16.8404 15.8651 15.04 16.6699L9.83008 18.999H19C19.5523 18.999 20 18.5513 20 17.999V7.99902C19.9998 7.44688 19.5522 6.99902 19 6.99902H18ZM16 3.62598C15.9997 2.90166 15.2532 2.41823 14.5918 2.71387L5.77539 6.6543C4.69529 7.13722 4 8.2104 4 9.39355V17.8721C4 18.5967 4.7467 19.0809 5.4082 18.7852L14.2246 14.8438C15.3046 14.3608 16 13.2885 16 12.1055V3.62598ZM12.5 7.99902C13.3283 7.99902 13.9998 8.67074 14 9.49902C14 10.3274 13.3284 10.999 12.5 10.999C11.6716 10.999 11 10.3274 11 9.49902C11.0002 8.67074 11.6717 7.99902 12.5 7.99902Z" fill="var(--fill-0, #7F8B99)"/>
</g>
</g>
</svg>
