<svg preserveAspectRatio="none" width="100%" height="100%" overflow="visible" style="display: block;" viewBox="0 0 24 24" fill="none" xmlns="http://www.w3.org/2000/svg">
<g id="Icon">
<path id=" " d="M15 4C18.3137 4 21 6.68629 21 10C21 11.2957 20.587 12.4938 19.8887 13.4746L23.293 16.8789L21.8789 18.2939L18.4746 14.8887C17.4938 15.587 16.2957 16 15 16C11.6863 16 9 13.3137 9 10C9 6.68629 11.6863 4 15 4ZM10 18H3V16H10V18ZM7 14H3V12H7V14ZM15 6C12.7909 6 11 7.79086 11 10C11 12.2091 12.7909 14 15 14C17.2091 14 19 12.2091 19 10C19 7.79086 17.2091 6 15 6ZM7 10H3V8H7V10Z" fill="var(--fill-0, #7F8B99)"/>
</g>
</svg>
